#!OML:ASF H:\Punching\Project 1\Capture day 1\Session 1\female.ASF
:FULLY-SPECIFIED
:DEGREES
1703
root -1.311 15.4056 6.85346 15.2242 8.57853 -0.860115
lowerback 1.61344 0.0432513 3.05775
upperback -4.96387 0.276971 1.24986
thorax -6.04985 0.0273383 -0.432213
lowerneck -7.75648 2.07887 7.21281
upperneck 33.8266 4.18909 -7.70684
head 12.8364 1.88647 -3.72792
rclavicle 1.16786e-014 -9.54166e-015
rhumerus 10.8857 26.5152 -76.7248
rradius 132.508
rwrist -39.5228
rhand -22.7823 -8.24115
rfingers 7.12502
rthumb 3.6533 -38.1896
lclavicle 1.16786e-014 -9.54166e-015
lhumerus 4.41639 -10.1179 66.0295
lradius 142.93
lwrist 25.5029
lhand -11.1942 24.2512
lfingers 7.12502
lthumb 14.8334 53.7002
rfemur -40.7152 6.11978 10.9782
rtibia 44.2018
rfoot -8.79078 -17.7429
rtoes 0.458204
lfemur 9.19836 -13.2888 0.515855
ltibia -3.49861e-014
lfoot 1.3531 8.80264
ltoes -26.7362
1704
root -1.34316 15.4185 6.85529 15.254 9.18104 -0.888711
lowerback 1.71297 0.0282045 3.16182
upperback -4.9046 0.264712 1.24995
thorax -6.0449 0.016941 -0.489782
lowerneck -7.87404 1.98123 7.10333
upperneck 33.6774 3.99574 -7.52327
head 12.7716 1.80731 -3.65413
rclavicle 2.72335e-014 1.66979e-014
rhumerus 10.5461 26.2812 -76.9957
rradius 132.023
rwrist -39.4633
rhand -22.5106 -8.21834
rfingers 7.12502
rthumb 3.91575 -38.1621
lclavicle 2.72335e-014 1.66979e-014
lhumerus 4.25473 -10.7689 66.0089
lradius 142.693
lwrist 25.7938
lhand -11.754 24.8262
lfingers 7.12502
lthumb 14.2941 54.3142
rfemur -40.519 5.91545 11.1865
rtibia 44.0711
rfoot -8.74253 -18.0461
rtoes 0.543038
lfemur 8.79646 -13.7995 0.83827
ltibia -3.18055e-014
lfoot 1.82571 9.06864
ltoes -26.5928
1705
root -1.37655 15.4312 6.85739 15.2916 9.74225 -0.9309
lowerback 1.81111 0.0094434 3.27317
upperback -4.84699 0.247818 1.24797
thorax -6.04115 0.00383911 -0.55321
lowerneck -8.01778 1.90392 7.00385
upperneck 33.5266 3.83028 -7.34504
head 12.716 1.74036 -3.58103
rclavicle -2.4202e-014 -1.19271e-014
rhumerus 10.2052 26.0576 -77.2681
rradius 131.462
rwrist -39.4574
rhand -22.1417 -8.24599
rfingers 7.12502
rthumb 4.27193 -38.1829
lclavicle -2.4202e-014 -1.19271e-014
lhumerus 4.02305 -11.3962 65.9863
lradius 142.309
lwrist 25.8521
lhand -12.2397 25.2331
lfingers 7.12502
lthumb 13.826 54.7536
rfemur -40.3167 5.70518 11.4228
rtibia 43.8745
rfoot -8.69139 -18.3198
rtoes 0.613409
lfemur 8.39601 -14.2654 1.17643
ltibia -3.18055e-015
lfoot 2.32878 9.31788
ltoes -26.4336
1706
root -1.40982 15.4441 6.86134 15.3235 10.2747 -0.972417
lowerback 1.93412 -0.018811 3.39385
upperback -4.81072 0.220301 1.23927
thorax -6.07482 -0.0158138 -0.627952
lowerneck -8.14162 1.83768 6.92759
upperneck 33.3777 3.68425 -7.18691
head 12.6606 1.68277 -3.51808
rclavicle -2.79789e-014 -2.74323e-014
rhumerus 9.80447 25.8586 -77.5642
rradius 130.83
rwrist -39.4886
rhand -21.6737 -8.33763
rfingers 7.12502
rthumb 4.72389 -38.265
lclavicle -2.79789e-014 -2.74323e-014
lhumerus 3.66142 -12.0228 65.9809
lradius 141.768
lwrist 25.5961
lhand -12.5988 25.3817
lfingers 7.12502
lthumb 13.4799 54.9255
rfemur -40.0873 5.45632 11.6807
rtibia 43.6446
rfoot -8.67323 -18.5583
rtoes 0.638247
lfemur 8.01778 -14.7055 1.5037
ltibia 2.8625e-014
lfoot 2.84871 9.54744
ltoes -26.2952
1707
root -1.44417 15.4655 6.87105 15.3545 10.7686 -1.00265
lowerback 2.03399 -0.0489367 3.50474
upperback -4.78233 0.188615 1.22032
thorax -6.10378 -0.0373637 -0.707469
lowerneck -8.23635 1.77411 6.8809
upperneck 33.2167 3.54577 -7.05576
head 12.5963 1.62925 -3.47007
rclavicle 4.82053e-015 -6.36111e-015
rhumerus 9.35359 25.6722 -77.8691
rradius 130.12
rwrist -39.529
rhand -21.1149 -8.49086
rfingers 7.12502
rthumb 5.26338 -38.4055
lclavicle 4.82053e-015 -6.36111e-015
lhumerus 3.18256 -12.655 65.998
lradius 141.076
lwrist 24.9935
lhand -12.8276 25.3177
lfingers 7.12502
lthumb 13.2594 54.876
rfemur -39.7922 5.18088 11.9624
rtibia 43.3536
rfoot -8.70961 -18.7819
rtoes 0.640966
lfemur 7.66236 -15.1119 1.79571
ltibia 3.18055e-015
lfoot 3.39103 9.75988
ltoes -26.1956
1708
root -1.47858 15.4781 6.87893 15.3962 11.2273 -1.04322
lowerback 2.13309 -0.0784287 3.62143
upperback -4.76185 0.158322 1.19823
thorax -6.14083 -0.0587937 -0.793475
lowerneck -8.30848 1.70948 6.8601
upperneck 33.0264 3.40503 -6.94074
head 12.5161 1.57592 -3.43266
rclavicle -1.74434e-014 3.97569e-016
rhumerus 8.88009 25.4946 -78.1626
rradius 129.319
rwrist -39.5461
rhand -20.4789 -8.69627
rfingers 7.12502
rthumb 5.87743 -38.5948
lclavicle -1.74434e-014 3.97569e-016
lhumerus 2.62901 -13.2866 66.0431
lradius 140.236
lwrist 24.0512
lhand -12.9525 25.1424
lfingers 7.12502
lthumb 13.139 54.7084
rfemur -39.5351 4.88301 12.2663
rtibia 43.0466
rfoot -8.76645 -18.9923
rtoes 0.653216
lfemur 7.3117 -15.4794 2.10445
ltibia 5.08889e-014
lfoot 3.95797 9.97298
ltoes -26.0474
1709
root -1.51445 15.4904 6.88687 15.4496 11.6432 -1.10078
lowerback 2.22342 -0.102151 3.74144
upperback -4.74475 0.135782 1.17547
thorax -6.17628 -0.0765988 -0.882545
lowerneck -8.39169 1.65268 6.8522
upperneck 32.8265 3.27194 -6.82614
head 12.4361 1.52695 -3.3967
rclavicle -3.56322e-014 7.55382e-015
rhumerus 8.38599 25.33 -78.4375
rradius 128.425
rwrist -39.5035
rhand -19.7742 -8.91863
rfingers 7.12502
rthumb 6.55784 -38.7971
lclavicle -3.56322e-014 7.55382e-015
lhumerus 2.00918 -13.903 66.1231
lradius 139.274
lwrist 22.8384
lhand -12.9775 24.9297
lfingers 7.12502
lthumb 13.1149 54.4973
rfemur -39.2858 4.59141 12.6058
rtibia 42.6926
rfoot -8.84144 -19.2077
rtoes 0.69572
lfemur 6.95804 -15.7975 2.42759
ltibia -2.54444e-014
lfoot 4.56537 10.199
ltoes -25.8413
1710
root -1.55208 15.5027 6.89363 15.5213 12.0197 -1.17877
lowerback 2.29869 -0.120841 3.86588
upperback -4.72688 0.119817 1.15633
thorax -6.20212 -0.0911306 -0.97081
lowerneck -8.49378 1.60685 6.83431
upperneck 32.6157 3.14849 -6.69021
head 12.3566 1.48288 -3.34937
rclavicle -1.36664e-014 1.59028e-015
rhumerus 7.88595 25.1901 -78.6804
rradius 127.43
rwrist -39.37
rhand -19.0289 -9.15521
rfingers 7.12502
rthumb 7.27727 -39.0101
lclavicle -1.36664e-014 1.59028e-015
lhumerus 1.33984 -14.4764 66.2435
lradius 138.224
lwrist 21.456
lhand -12.9008 24.7436
lfingers 7.12502
lthumb 13.1888 54.3064
rfemur -39.0704 4.3167 12.9791
rtibia 42.3187
rfoot -8.93952 -19.4333
rtoes 0.794129
lfemur 6.58601 -16.0655 2.7736
ltibia -2.8625e-014
lfoot 5.22199 10.4502
ltoes -25.5629
1711
root -1.59129 15.5148 6.90082 15.6005 12.3456 -1.27962
lowerback 2.371 -0.133708 3.98519
upperback -4.71477 0.112078 1.14596
thorax -6.23207 -0.101254 -1.04765
lowerneck -8.61276 1.57297 6.81159
upperneck 32.4057 3.03984 -6.54551
head 12.283 1.44533 -3.29629
rclavicle 7.45443e-016 3.77691e-014
rhumerus 7.3588 25.0951 -78.9004
rradius 126.333
rwrist -39.1385
rhand -18.2698 -9.39841
rfingers 7.12502
rthumb 8.0099 -39.2266
lclavicle 7.45443e-016 3.77691e-014
lhumerus 0.583259 -14.9867 66.4148
lradius 137.107
lwrist 20.0069
lhand -12.737 24.5354
lfingers 7.12502
lthumb 13.3467 54.088
rfemur -38.8642 4.08598 13.3781
rtibia 41.8937
rfoot -9.02445 -19.6618
rtoes 0.925267
lfemur 6.22041 -16.2762 3.13236
ltibia 3.81667e-014
lfoot 5.91667 10.7272
ltoes -25.2457
1712
root -1.63145 15.5272 6.90709 15.6894 12.653 -1.39322
lowerback 2.44077 -0.147076 4.11511
upperback -4.70281 0.104302 1.1358
thorax -6.26087 -0.111913 -1.1302
lowerneck -8.7642 1.55337 6.7823
upperneck 32.1996 2.94452 -6.37785
head 12.2193 1.41501 -3.232
rclavicle -2.73329e-015 -4.17448e-014
rhumerus 6.81085 25.0337 -79.0977
rradius 125.139
rwrist -38.8104
rhand -17.5119 -9.6575
rfingers 7.12502
rthumb 8.7414 -39.4565
lclavicle -2.73329e-015 -4.17448e-014
lhumerus -0.225025 -15.4349 66.6285
lradius 135.95
lwrist 18.5771
lhand -12.4799 24.3649
lfingers 7.12502
lthumb 13.5945 53.901
rfemur -38.6623 3.86578 13.7923
rtibia 41.4226
rfoot -9.09892 -19.8798
rtoes 1.10702
lfemur 5.41023 -16.4477 3.49224
ltibia 0.859385
lfoot 6.23425 10.9616
ltoes -24.8483
1713
root -1.67232 15.5401 6.91324 15.7803 12.934 -1.51501
lowerback 2.53559 -0.161495 4.24506
upperback -4.70819 0.0973953 1.12657
thorax -6.32262 -0.122946 -1.21171
lowerneck -8.9122 1.53726 6.76006
upperneck 31.9934 2.85272 -6.20874
head 12.156 1.38721 -3.1684
rclavicle -1.2424e-015 4.37326e-015
rhumerus 6.1962 25.0227 -79.2951
rradius 123.867
rwrist -38.4059
rhand -16.7633 -9.94583
rfingers 7.12502
rthumb 9.46378 -39.7133
lclavicle -1.2424e-015 4.37326e-015
lhumerus -1.14131 -15.8329 66.896
lradius 134.781
lwrist 17.2144
lhand -12.1725 24.1988
lfingers 7.12502
lthumb 13.8907 53.7149
rfemur -38.4627 3.67296 14.2068
rtibia 40.9174
rfoot -9.1483 -20.0776
rtoes 1.28782
lfemur 2.87346 -16.5392 3.82113
ltibia 5.17886
lfoot 4.87825 10.9133
ltoes -24.4081
1714
root -1.71237 15.5541 6.91962 15.8657 13.2272 -1.61638
lowerback 2.67495 -0.192381 4.37772
upperback -4.74071 0.0720156 1.11028
thorax -6.44018 -0.144914 -1.30033
lowerneck -9.01748 1.51929 6.75761
upperneck 31.7745 2.76119 -6.05476
head 12.0796 1.36052 -3.11415
rclavicle -4.62174e-014 3.97569e-016
rhumerus 5.48488 25.0713 -79.507
rradius 122.53
rwrist -37.9492
rhand -16.0285 -10.2672
rfingers 7.12502
rthumb 10.1727 -40.0013
lclavicle -4.62174e-014 3.97569e-016
lhumerus -2.19143 -16.1937 67.2244
lradius 133.62
lwrist 15.9523
lhand -11.8452 24.0089
lfingers 7.12502
lthumb 14.2062 53.5031
rfemur -38.2357 3.44567 14.597
rtibia 40.3905
rfoot -9.18665 -20.2259
rtoes 1.43927
lfemur 1.37291 -16.6758 4.15697
ltibia 7.40263
lfoot 4.62509 11.0931
ltoes -23.9533
1715
root -1.75268 15.5687 6.92792 15.9464 13.5152 -1.71137
lowerback 2.805 -0.226956 4.50596
upperback -4.77068 0.0409061 1.08899
thorax -6.55026 -0.169654 -1.39115
lowerneck -9.12321 1.50411 6.77315
upperneck 31.5429 2.67142 -5.90689
head 11.9993 1.33569 -3.06525
rclavicle 8.89561e-015 -3.97569e-015
rhumerus 4.72291 25.151 -79.7148
rradius 121.137
rwrist -37.4833
rhand -15.2875 -10.6023
rfingers 7.12502
rthumb 10.8875 -40.3001
lclavicle 8.89561e-015 -3.97569e-015
lhumerus -3.30706 -16.5254 67.5962
lradius 132.478
lwrist 14.816
lhand -11.5257 23.8797
lfingers 7.12502
lthumb 14.514 53.3521
rfemur -37.9925 3.22668 14.9703
rtibia 39.8538
rfoot -9.20996 -20.3381
rtoes 1.5494
lfemur 0.0855067 -16.8141 4.49348
ltibia 9.19941
lfoot 4.64103 11.3537
ltoes -23.4025
